solid OpenSCAD_Model
  facet normal -0 0 -1
    outer loop
      vertex 7.60071 1.43699 0
      vertex 6.79 0.456205 0
      vertex 6.05866 1.66677 0
    endloop
  endfacet
  facet normal 0 0 -1
    outer loop
      vertex 0.820233 -6.76797 0
      vertex 0.638816 -6.91369 0
      vertex 0.0945638 -6.9193 0
    endloop
  endfacet
  facet normal -0 0 -1
    outer loop
      vertex 0.689839 6.90697 0
      vertex 0.0265323 6.87894 0
      vertex 0.185272 6.96861 0
    endloop
  endfacet
  facet normal 0 0 -1
    outer loop
      vertex 0.0945638 -6.9193 0
      vertex -1.00528 -6.02818 0
      vertex 1.05267 -6.53819 0
    endloop
  endfacet
  facet normal 0 0 -1
    outer loop
      vertex 6.5859 -0.149079 0
      vertex 6.1437 -1.66229 0
      vertex 5.55976 -1.02338 0
    endloop
  endfacet
  facet normal 0 0 -1
    outer loop
      vertex 0.185272 6.96861 0
      vertex 0.327005 7.01345 0
      vertex 0.451729 7.01345 0
    endloop
  endfacet
  facet normal 0 0 -1
    outer loop
      vertex 8.26968 3.84131 0
      vertex 8.03724 3.80208 0
      vertex 8.13362 3.83571 0
    endloop
  endfacet
  facet normal -0 0 -1
    outer loop
      vertex 0.570784 6.97982 0
      vertex 0.185272 6.96861 0
      vertex 0.451729 7.01345 0
    endloop
  endfacet
  facet normal 0 -0 -1
    outer loop
      vertex 8.91031 3.24163 0
      vertex 8.91031 3.09031 0
      vertex 8.8763 2.98383 0
    endloop
  endfacet
  facet normal 0 -0 -1
    outer loop
      vertex 0.570784 6.97982 0
      vertex 0.689839 6.90697 0
      vertex 0.185272 6.96861 0
    endloop
  endfacet
  facet normal 0 0 -1
    outer loop
      vertex 8.79126 3.53307 0
      vertex 8.87063 3.39295 0
      vertex 8.84795 2.92778 0
    endloop
  endfacet
  facet normal 0 -0 -1
    outer loop
      vertex 0.689839 6.90697 0
      vertex 0.786217 6.8285 0
      vertex 0.0265323 6.87894 0
    endloop
  endfacet
  facet normal 0 -0 -1
    outer loop
      vertex 0.0265323 6.87894 0
      vertex 0.786217 6.8285 0
      vertex -0.160554 6.75004 0
    endloop
  endfacet
  facet normal 0 0 -1
    outer loop
      vertex -0.160554 6.75004 0
      vertex 0.786217 6.8285 0
      vertex 1.05267 6.56509 0
    endloop
  endfacet
  facet normal 0 0 -1
    outer loop
      vertex -4.11772 3.38735 0
      vertex -0.160554 6.75004 0
      vertex 1.05267 6.56509 0
    endloop
  endfacet
  facet normal 0 0 -1
    outer loop
      vertex -1.00528 -6.02818 0
      vertex -4.11772 3.38735 0
      vertex 1.05267 6.56509 0
    endloop
  endfacet
  facet normal 0 0 -1
    outer loop
      vertex -4.45788 -3.09143 0
      vertex -4.32748 3.1968 0
      vertex -4.11772 3.38735 0
    endloop
  endfacet
  facet normal 0 0 -1
    outer loop
      vertex -1.00528 -6.02818 0
      vertex -4.45788 -3.09143 0
      vertex -4.11772 3.38735 0
    endloop
  endfacet
  facet normal 0 -0 -1
    outer loop
      vertex -9.06701 2.37854 0
      vertex -8.19394 3.17438 0
      vertex -9.08969 1.81809 0
    endloop
  endfacet
  facet normal 0 0 -1
    outer loop
      vertex -8.73252 3.06229 0
      vertex -8.96496 2.83811 0
      vertex -8.87426 2.96701 0
    endloop
  endfacet
  facet normal 0 0 -1
    outer loop
      vertex -8.73252 3.06229 0
      vertex -9.03866 2.61954 0
      vertex -8.96496 2.83811 0
    endloop
  endfacet
  facet normal 0 -0 -1
    outer loop
      vertex -8.73252 3.06229 0
      vertex -8.51709 3.12954 0
      vertex -9.03866 2.61954 0
    endloop
  endfacet
  facet normal 0 -0 -1
    outer loop
      vertex -9.03866 2.61954 0
      vertex -8.51709 3.12954 0
      vertex -9.06701 2.37854 0
    endloop
  endfacet
  facet normal 0 0 -1
    outer loop
      vertex -9.06701 2.37854 0
      vertex -8.51709 3.12954 0
      vertex -8.19394 3.17438 0
    endloop
  endfacet
  facet normal 0 0 -1
    outer loop
      vertex -9.08969 1.81809 0
      vertex -8.19394 3.17438 0
      vertex -7.7404 3.1968 0
    endloop
  endfacet
  facet normal 0 0 -1
    outer loop
      vertex -9.08969 -0.171497 0
      vertex -9.08969 1.81809 0
      vertex -7.7404 3.1968 0
    endloop
  endfacet
  facet normal -0 0 -1
    outer loop
      vertex -4.32748 3.1968 0
      vertex -9.08969 -0.171497 0
      vertex -7.7404 3.1968 0
    endloop
  endfacet
  facet normal 0 0 -1
    outer loop
      vertex -8.61347 -3.09143 0
      vertex -9.06701 -2.71033 0
      vertex -9.08969 -0.171497 0
    endloop
  endfacet
  facet normal 0 0 -1
    outer loop
      vertex -4.45788 -3.09143 0
      vertex -8.61347 -3.09143 0
      vertex -9.08969 -0.171497 0
    endloop
  endfacet
  facet normal 0 0 -1
    outer loop
      vertex 1.05267 -6.53819 0
      vertex -1.00528 -6.02818 0
      vertex 1.05267 6.56509 0
    endloop
  endfacet
  facet normal 0 0 -1
    outer loop
      vertex 0.638816 -6.91369 0
      vertex 0.28165 -6.98655 0
      vertex 0.0945638 -6.9193 0
    endloop
  endfacet
  facet normal 0 0 -1
    outer loop
      vertex -4.32748 3.1968 0
      vertex -4.45788 -3.09143 0
      vertex -9.08969 -0.171497 0
    endloop
  endfacet
  facet normal -0 0 -1
    outer loop
      vertex 0.820233 -6.76797 0
      vertex 0.0945638 -6.9193 0
      vertex 1.05267 -6.53819 0
    endloop
  endfacet
  facet normal 0 0 -1
    outer loop
      vertex 0.0945638 -6.9193 0
      vertex 0.28165 -6.98655 0
      vertex 0.134249 -6.94171 0
    endloop
  endfacet
  facet normal 0 0 -1
    outer loop
      vertex 0.638816 -6.91369 0
      vertex 0.457398 -6.98655 0
      vertex 0.28165 -6.98655 0
    endloop
  endfacet
  facet normal -0 0 -1
    outer loop
      vertex 8.66086 -3.62946 0
      vertex 8.62118 -3.65188 0
      vertex 8.76858 -3.52298 0
    endloop
  endfacet
  facet normal -0 0 -1
    outer loop
      vertex 8.62118 -3.65188 0
      vertex 8.44543 -3.70793 0
      vertex 8.76858 -3.52298 0
    endloop
  endfacet
  facet normal -0 0 -1
    outer loop
      vertex 8.76858 -3.52298 0
      vertex 8.44543 -3.70793 0
      vertex 8.86496 -3.33243 0
    endloop
  endfacet
  facet normal -0 0 -1
    outer loop
      vertex 8.86496 -3.33243 0
      vertex 8.44543 -3.70793 0
      vertex 8.87063 -2.90088 0
    endloop
  endfacet
  facet normal -0 0 -1
    outer loop
      vertex 8.91031 -3.11946 0
      vertex 8.86496 -3.33243 0
      vertex 8.87063 -2.90088 0
    endloop
  endfacet
  facet normal -0 -0 -1
    outer loop
      vertex 8.89897 -2.96813 0
      vertex 8.91031 -3.11946 0
      vertex 8.87063 -2.90088 0
    endloop
  endfacet
  facet normal 0 0 -1
    outer loop
      vertex 8.87063 -2.90088 0
      vertex 8.44543 -3.70793 0
      vertex 8.27535 -3.73034 0
    endloop
  endfacet
  facet normal 0 0 -1
    outer loop
      vertex 8.49645 -2.40208 0
      vertex 7.75945 -3.50056 0
      vertex 7.56102 -3.2988 0
    endloop
  endfacet
  facet normal 0 0 -1
    outer loop
      vertex 6.47819 0.00784628 0
      vertex 4.65267 0.0470777 0
      vertex 5.48039 1.13995 0
    endloop
  endfacet
  facet normal 0 0 -1
    outer loop
      vertex 2.39063 -2.62066 0
      vertex 3.75693 -3.02418 0
      vertex 3.30338 -3.51177 0
    endloop
  endfacet
  facet normal 0 0 -1
    outer loop
      vertex 6.55756 0.136749 0
      vertex 5.53708 1.15677 0
      vertex 5.72984 1.3193 0
    endloop
  endfacet
  facet normal -0 0 -1
    outer loop
      vertex 6.79 0.456205 0
      vertex 6.55756 0.136749 0
      vertex 5.72984 1.3193 0
    endloop
  endfacet
  facet normal 0 0 -1
    outer loop
      vertex 7.78212 3.61153 0
      vertex 8.79126 3.53307 0
      vertex 8.84795 2.92778 0
    endloop
  endfacet
  facet normal 0 0 -1
    outer loop
      vertex 8.91031 3.24163 0
      vertex 8.8763 2.98383 0
      vertex 8.84795 2.92778 0
    endloop
  endfacet
  facet normal 0 -0 -1
    outer loop
      vertex 8.87063 3.39295 0
      vertex 8.91031 3.24163 0
      vertex 8.84795 2.92778 0
    endloop
  endfacet
  facet normal 0 0 -1
    outer loop
      vertex 7.78212 3.61153 0
      vertex 8.54748 3.75164 0
      vertex 8.68354 3.65637 0
    endloop
  endfacet
  facet normal 0 0 -1
    outer loop
      vertex 7.78212 3.61153 0
      vertex 7.92952 3.73483 0
      vertex 8.54748 3.75164 0
    endloop
  endfacet
  facet normal 0 0 -1
    outer loop
      vertex 8.26968 3.84131 0
      vertex 7.92952 3.73483 0
      vertex 8.03724 3.80208 0
    endloop
  endfacet
  facet normal 0 -0 -1
    outer loop
      vertex 8.26968 3.84131 0
      vertex 8.39441 3.8189 0
      vertex 7.92952 3.73483 0
    endloop
  endfacet
  facet normal 0 0 -1
    outer loop
      vertex 7.92952 3.73483 0
      vertex 8.39441 3.8189 0
      vertex 8.54748 3.75164 0
    endloop
  endfacet
  facet normal 0 0 -1
    outer loop
      vertex 7.78212 3.61153 0
      vertex 8.68354 3.65637 0
      vertex 8.79126 3.53307 0
    endloop
  endfacet
  facet normal 0 0 -1
    outer loop
      vertex 7.33425 3.12954 0
      vertex 7.78212 3.61153 0
      vertex 8.84795 2.92778 0
    endloop
  endfacet
  facet normal 0 0 -1
    outer loop
      vertex 7.71976 1.56589 0
      vertex 7.33425 3.12954 0
      vertex 8.84795 2.92778 0
    endloop
  endfacet
  facet normal 0 0 -1
    outer loop
      vertex 7.71976 1.56589 0
      vertex 6.05866 1.66677 0
      vertex 7.33425 3.12954 0
    endloop
  endfacet
  facet normal -0 0 -1
    outer loop
      vertex 7.71976 1.56589 0
      vertex 7.60071 1.43699 0
      vertex 6.05866 1.66677 0
    endloop
  endfacet
  facet normal 0 -0 -1
    outer loop
      vertex 6.05866 1.66677 0
      vertex 6.79 0.456205 0
      vertex 5.72984 1.3193 0
    endloop
  endfacet
  facet normal -0 0 -1
    outer loop
      vertex 6.55756 0.136749 0
      vertex 6.47819 0.00784628 0
      vertex 5.53708 1.15677 0
    endloop
  endfacet
  facet normal 0 -0 -1
    outer loop
      vertex 5.53708 1.15677 0
      vertex 6.47819 0.00784628 0
      vertex 5.48039 1.13995 0
    endloop
  endfacet
  facet normal -0 0 -1
    outer loop
      vertex 5.48039 1.13995 0
      vertex 4.65267 0.0470777 0
      vertex 5.44637 1.14556 0
    endloop
  endfacet
  facet normal -0 0 -1
    outer loop
      vertex 5.44637 1.14556 0
      vertex 4.65267 0.0470777 0
      vertex 3.41677 1.47622 0
    endloop
  endfacet
  facet normal 0 0 -1
    outer loop
      vertex 2.36228 3.65637 0
      vertex 2.1922 3.36493 0
      vertex 2.28858 3.58351 0
    endloop
  endfacet
  facet normal 0 0 -1
    outer loop
      vertex 3.16732 3.74043 0
      vertex 2.81582 3.83571 0
      vertex 3.02559 3.80769 0
    endloop
  endfacet
  facet normal 0 0 -1
    outer loop
      vertex 3.16732 3.74043 0
      vertex 2.59472 3.79087 0
      vertex 2.81582 3.83571 0
    endloop
  endfacet
  facet normal 0 -0 -1
    outer loop
      vertex 2.36228 3.65637 0
      vertex 2.43598 3.71241 0
      vertex 2.1922 3.36493 0
    endloop
  endfacet
  facet normal 0 0 -1
    outer loop
      vertex 2.28858 3.58351 0
      vertex 2.1922 3.36493 0
      vertex 2.22622 3.48263 0
    endloop
  endfacet
  facet normal 0 0 -1
    outer loop
      vertex 2.43598 3.71241 0
      vertex 2.18086 3.18559 0
      vertex 2.1922 3.36493 0
    endloop
  endfacet
  facet normal 0 -0 -1
    outer loop
      vertex 2.43598 3.71241 0
      vertex 2.59472 3.79087 0
      vertex 2.18086 3.18559 0
    endloop
  endfacet
  facet normal 0 0 -1
    outer loop
      vertex 2.18086 3.18559 0
      vertex 2.21488 3.00624 0
      vertex 2.18653 3.11273 0
    endloop
  endfacet
  facet normal 0 0 -1
    outer loop
      vertex 2.18086 3.18559 0
      vertex 2.27724 2.88295 0
      vertex 2.21488 3.00624 0
    endloop
  endfacet
  facet normal 0 0 -1
    outer loop
      vertex 2.18086 3.18559 0
      vertex 2.59472 3.79087 0
      vertex 2.27724 2.88295 0
    endloop
  endfacet
  facet normal 0 0 -1
    outer loop
      vertex 2.27724 2.88295 0
      vertex 2.59472 3.79087 0
      vertex 3.16732 3.74043 0
    endloop
  endfacet
  facet normal -0 0 -1
    outer loop
      vertex 3.60952 3.26405 0
      vertex 2.27724 2.88295 0
      vertex 3.16732 3.74043 0
    endloop
  endfacet
  facet normal 0 0 -1
    outer loop
      vertex 3.60952 3.26405 0
      vertex 2.53236 2.52426 0
      vertex 2.27724 2.88295 0
    endloop
  endfacet
  facet normal 0 0 -1
    outer loop
      vertex 3.60952 3.26405 0
      vertex 3.41677 1.47622 0
      vertex 2.53236 2.52426 0
    endloop
  endfacet
  facet normal 0 -0 -1
    outer loop
      vertex 3.60952 3.26405 0
      vertex 5.44637 1.14556 0
      vertex 3.41677 1.47622 0
    endloop
  endfacet
  facet normal -0 0 -1
    outer loop
      vertex 5.54275 -1.02338 0
      vertex 5.2196 -1.35404 0
      vertex 4.65267 0.0470777 0
    endloop
  endfacet
  facet normal 0 0 -1
    outer loop
      vertex 2.28291 -2.77758 0
      vertex 2.39063 -2.62066 0
      vertex 3.30338 -3.51177 0
    endloop
  endfacet
  facet normal 0 0 -1
    outer loop
      vertex 2.56637 -3.68551 0
      vertex 2.4133 -3.60144 0
      vertex 2.20921 -3.3044 0
    endloop
  endfacet
  facet normal 0 -0 -1
    outer loop
      vertex 2.18653 -3.00737 0
      vertex 2.22055 -2.90088 0
      vertex 2.18086 -3.15308 0
    endloop
  endfacet
  facet normal -0 0 -1
    outer loop
      vertex 2.93488 -3.70793 0
      vertex 2.74779 -3.72474 0
      vertex 2.20921 -3.3044 0
    endloop
  endfacet
  facet normal 0 0 -1
    outer loop
      vertex 2.20921 -3.3044 0
      vertex 2.4133 -3.60144 0
      vertex 2.28858 -3.47254 0
    endloop
  endfacet
  facet normal 0 0 -1
    outer loop
      vertex 2.74779 -3.72474 0
      vertex 2.56637 -3.68551 0
      vertex 2.20921 -3.3044 0
    endloop
  endfacet
  facet normal 0 0 -1
    outer loop
      vertex 2.93488 -3.70793 0
      vertex 2.20921 -3.3044 0
      vertex 2.18086 -3.15308 0
    endloop
  endfacet
  facet normal 0 -0 -1
    outer loop
      vertex 2.22055 -2.90088 0
      vertex 2.93488 -3.70793 0
      vertex 2.18086 -3.15308 0
    endloop
  endfacet
  facet normal 0 0 -1
    outer loop
      vertex 2.22055 -2.90088 0
      vertex 2.28291 -2.77758 0
      vertex 2.93488 -3.70793 0
    endloop
  endfacet
  facet normal 0 0 -1
    outer loop
      vertex 2.93488 -3.70793 0
      vertex 2.28291 -2.77758 0
      vertex 3.12197 -3.64067 0
    endloop
  endfacet
  facet normal -0 0 -1
    outer loop
      vertex 8.49645 -2.40208 0
      vertex 7.56102 -3.2988 0
      vertex 6.1437 -1.66229 0
    endloop
  endfacet
  facet normal 0 0 -1
    outer loop
      vertex 7.75945 -3.50056 0
      vertex 8.27535 -3.73034 0
      vertex 7.90685 -3.62946 0
    endloop
  endfacet
  facet normal 0 0 -1
    outer loop
      vertex 3.12197 -3.64067 0
      vertex 2.28291 -2.77758 0
      vertex 3.30338 -3.51177 0
    endloop
  endfacet
  facet normal 0 0 -1
    outer loop
      vertex 2.39063 -2.62066 0
      vertex 2.7648 -2.14428 0
      vertex 3.75693 -3.02418 0
    endloop
  endfacet
  facet normal 0 0 -1
    outer loop
      vertex 8.87063 -2.90088 0
      vertex 8.27535 -3.73034 0
      vertex 7.75945 -3.50056 0
    endloop
  endfacet
  facet normal 0 0 -1
    outer loop
      vertex 3.75693 -3.02418 0
      vertex 2.7648 -2.14428 0
      vertex 5.2196 -1.35404 0
    endloop
  endfacet
  facet normal -0 0 -1
    outer loop
      vertex 5.2196 -1.35404 0
      vertex 2.7648 -2.14428 0
      vertex 4.65267 0.0470777 0
    endloop
  endfacet
  facet normal 0 0 -1
    outer loop
      vertex 5.55976 -1.02338 0
      vertex 4.65267 0.0470777 0
      vertex 6.47819 0.00784628 0
    endloop
  endfacet
  facet normal 0 0 -1
    outer loop
      vertex 5.54275 -1.02338 0
      vertex 4.65267 0.0470777 0
      vertex 5.55976 -1.02338 0
    endloop
  endfacet
  facet normal -0 0 -1
    outer loop
      vertex 6.5859 -0.149079 0
      vertex 5.55976 -1.02338 0
      vertex 6.47819 0.00784628 0
    endloop
  endfacet
  facet normal 0 0 -1
    outer loop
      vertex 8.49645 -2.40208 0
      vertex 6.1437 -1.66229 0
      vertex 6.5859 -0.149079 0
    endloop
  endfacet
  facet normal 0 0 -1
    outer loop
      vertex 7.75945 -3.50056 0
      vertex 8.49645 -2.40208 0
      vertex 8.87063 -2.90088 0
    endloop
  endfacet
  facet normal 0 0 -1
    outer loop
      vertex 7.90685 -3.62946 0
      vertex 8.11661 -3.72474 0
      vertex 8.02023 -3.69672 0
    endloop
  endfacet
  facet normal 0 0 -1
    outer loop
      vertex 7.90685 -3.62946 0
      vertex 8.27535 -3.73034 0
      vertex 8.11661 -3.72474 0
    endloop
  endfacet
  facet normal 0 0 1
    outer loop
      vertex 6.05866 1.66677 1
      vertex 6.79 0.456205 1
      vertex 7.60071 1.43699 1
    endloop
  endfacet
  facet normal 0 0 1
    outer loop
      vertex 0.0945638 -6.9193 1
      vertex 0.638816 -6.91369 1
      vertex 0.820233 -6.76797 1
    endloop
  endfacet
  facet normal 0 0 1
    outer loop
      vertex 0.185272 6.96861 1
      vertex 0.0265323 6.87894 1
      vertex 0.689839 6.90697 1
    endloop
  endfacet
  facet normal 0 0 1
    outer loop
      vertex 1.05267 -6.53819 1
      vertex -1.00528 -6.02818 1
      vertex 0.0945638 -6.9193 1
    endloop
  endfacet
  facet normal -0 0 1
    outer loop
      vertex 5.55976 -1.02338 1
      vertex 6.1437 -1.66229 1
      vertex 6.5859 -0.149079 1
    endloop
  endfacet
  facet normal 0 0 1
    outer loop
      vertex 0.451729 7.01345 1
      vertex 0.327005 7.01345 1
      vertex 0.185272 6.96861 1
    endloop
  endfacet
  facet normal -0 0 1
    outer loop
      vertex 8.13362 3.83571 1
      vertex 8.03724 3.80208 1
      vertex 8.26968 3.84131 1
    endloop
  endfacet
  facet normal 0 0 1
    outer loop
      vertex 0.451729 7.01345 1
      vertex 0.185272 6.96861 1
      vertex 0.570784 6.97982 1
    endloop
  endfacet
  facet normal 0 0 1
    outer loop
      vertex 8.8763 2.98383 1
      vertex 8.91031 3.09031 1
      vertex 8.91031 3.24163 1
    endloop
  endfacet
  facet normal -0 0 1
    outer loop
      vertex 0.185272 6.96861 1
      vertex 0.689839 6.90697 1
      vertex 0.570784 6.97982 1
    endloop
  endfacet
  facet normal 0 -0 1
    outer loop
      vertex 8.84795 2.92778 1
      vertex 8.87063 3.39295 1
      vertex 8.79126 3.53307 1
    endloop
  endfacet
  facet normal -0 0 1
    outer loop
      vertex 0.0265323 6.87894 1
      vertex 0.786217 6.8285 1
      vertex 0.689839 6.90697 1
    endloop
  endfacet
  facet normal 0 0 1
    outer loop
      vertex -0.160554 6.75004 1
      vertex 0.786217 6.8285 1
      vertex 0.0265323 6.87894 1
    endloop
  endfacet
  facet normal 0 0 1
    outer loop
      vertex 1.05267 6.56509 1
      vertex 0.786217 6.8285 1
      vertex -0.160554 6.75004 1
    endloop
  endfacet
  facet normal 0 0 1
    outer loop
      vertex 1.05267 6.56509 1
      vertex -0.160554 6.75004 1
      vertex -4.11772 3.38735 1
    endloop
  endfacet
  facet normal 0 0 1
    outer loop
      vertex 1.05267 6.56509 1
      vertex -4.11772 3.38735 1
      vertex -1.00528 -6.02818 1
    endloop
  endfacet
  facet normal 0 0 1
    outer loop
      vertex -4.11772 3.38735 1
      vertex -4.32748 3.1968 1
      vertex -4.45788 -3.09143 1
    endloop
  endfacet
  facet normal 0 0 1
    outer loop
      vertex -4.11772 3.38735 1
      vertex -4.45788 -3.09143 1
      vertex -1.00528 -6.02818 1
    endloop
  endfacet
  facet normal 0 0 1
    outer loop
      vertex -9.08969 1.81809 1
      vertex -8.19394 3.17438 1
      vertex -9.06701 2.37854 1
    endloop
  endfacet
  facet normal -0 0 1
    outer loop
      vertex -8.87426 2.96701 1
      vertex -8.96496 2.83811 1
      vertex -8.73252 3.06229 1
    endloop
  endfacet
  facet normal -0 0 1
    outer loop
      vertex -8.96496 2.83811 1
      vertex -9.03866 2.61954 1
      vertex -8.73252 3.06229 1
    endloop
  endfacet
  facet normal 0 0 1
    outer loop
      vertex -9.03866 2.61954 1
      vertex -8.51709 3.12954 1
      vertex -8.73252 3.06229 1
    endloop
  endfacet
  facet normal 0 0 1
    outer loop
      vertex -9.06701 2.37854 1
      vertex -8.51709 3.12954 1
      vertex -9.03866 2.61954 1
    endloop
  endfacet
  facet normal 0 0 1
    outer loop
      vertex -8.19394 3.17438 1
      vertex -8.51709 3.12954 1
      vertex -9.06701 2.37854 1
    endloop
  endfacet
  facet normal 0 0 1
    outer loop
      vertex -7.7404 3.1968 1
      vertex -8.19394 3.17438 1
      vertex -9.08969 1.81809 1
    endloop
  endfacet
  facet normal 0 0 1
    outer loop
      vertex -7.7404 3.1968 1
      vertex -9.08969 1.81809 1
      vertex -9.08969 -0.171497 1
    endloop
  endfacet
  facet normal -0 0 1
    outer loop
      vertex -7.7404 3.1968 1
      vertex -9.08969 -0.171497 1
      vertex -4.32748 3.1968 1
    endloop
  endfacet
  facet normal 0 0 1
    outer loop
      vertex -9.08969 -0.171497 1
      vertex -9.06701 -2.71033 1
      vertex -8.61347 -3.09143 1
    endloop
  endfacet
  facet normal 0 0 1
    outer loop
      vertex -9.08969 -0.171497 1
      vertex -8.61347 -3.09143 1
      vertex -4.45788 -3.09143 1
    endloop
  endfacet
  facet normal 0 0 1
    outer loop
      vertex 1.05267 6.56509 1
      vertex -1.00528 -6.02818 1
      vertex 1.05267 -6.53819 1
    endloop
  endfacet
  facet normal -0 0 1
    outer loop
      vertex 0.0945638 -6.9193 1
      vertex 0.28165 -6.98655 1
      vertex 0.638816 -6.91369 1
    endloop
  endfacet
  facet normal -0 0 1
    outer loop
      vertex -9.08969 -0.171497 1
      vertex -4.45788 -3.09143 1
      vertex -4.32748 3.1968 1
    endloop
  endfacet
  facet normal 0 0 1
    outer loop
      vertex 1.05267 -6.53819 1
      vertex 0.0945638 -6.9193 1
      vertex 0.820233 -6.76797 1
    endloop
  endfacet
  facet normal -0 -0 1
    outer loop
      vertex 0.134249 -6.94171 1
      vertex 0.28165 -6.98655 1
      vertex 0.0945638 -6.9193 1
    endloop
  endfacet
  facet normal 0 0 1
    outer loop
      vertex 0.28165 -6.98655 1
      vertex 0.457398 -6.98655 1
      vertex 0.638816 -6.91369 1
    endloop
  endfacet
  facet normal 0 0 1
    outer loop
      vertex 8.76858 -3.52298 1
      vertex 8.62118 -3.65188 1
      vertex 8.66086 -3.62946 1
    endloop
  endfacet
  facet normal 0 0 1
    outer loop
      vertex 8.76858 -3.52298 1
      vertex 8.44543 -3.70793 1
      vertex 8.62118 -3.65188 1
    endloop
  endfacet
  facet normal 0 0 1
    outer loop
      vertex 8.86496 -3.33243 1
      vertex 8.44543 -3.70793 1
      vertex 8.76858 -3.52298 1
    endloop
  endfacet
  facet normal 0 0 1
    outer loop
      vertex 8.87063 -2.90088 1
      vertex 8.44543 -3.70793 1
      vertex 8.86496 -3.33243 1
    endloop
  endfacet
  facet normal 0 0 1
    outer loop
      vertex 8.87063 -2.90088 1
      vertex 8.86496 -3.33243 1
      vertex 8.91031 -3.11946 1
    endloop
  endfacet
  facet normal 0 0 1
    outer loop
      vertex 8.87063 -2.90088 1
      vertex 8.91031 -3.11946 1
      vertex 8.89897 -2.96813 1
    endloop
  endfacet
  facet normal 0 0 1
    outer loop
      vertex 8.27535 -3.73034 1
      vertex 8.44543 -3.70793 1
      vertex 8.87063 -2.90088 1
    endloop
  endfacet
  facet normal -0 0 1
    outer loop
      vertex 7.56102 -3.2988 1
      vertex 7.75945 -3.50056 1
      vertex 8.49645 -2.40208 1
    endloop
  endfacet
  facet normal 0 0 1
    outer loop
      vertex 5.48039 1.13995 1
      vertex 4.65267 0.0470777 1
      vertex 6.47819 0.00784628 1
    endloop
  endfacet
  facet normal 0 -0 1
    outer loop
      vertex 3.30338 -3.51177 1
      vertex 3.75693 -3.02418 1
      vertex 2.39063 -2.62066 1
    endloop
  endfacet
  facet normal 0 0 1
    outer loop
      vertex 5.72984 1.3193 1
      vertex 5.53708 1.15677 1
      vertex 6.55756 0.136749 1
    endloop
  endfacet
  facet normal 0 0 1
    outer loop
      vertex 5.72984 1.3193 1
      vertex 6.55756 0.136749 1
      vertex 6.79 0.456205 1
    endloop
  endfacet
  facet normal 0 0 1
    outer loop
      vertex 8.84795 2.92778 1
      vertex 8.79126 3.53307 1
      vertex 7.78212 3.61153 1
    endloop
  endfacet
  facet normal 0 0 1
    outer loop
      vertex 8.84795 2.92778 1
      vertex 8.8763 2.98383 1
      vertex 8.91031 3.24163 1
    endloop
  endfacet
  facet normal 0 0 1
    outer loop
      vertex 8.84795 2.92778 1
      vertex 8.91031 3.24163 1
      vertex 8.87063 3.39295 1
    endloop
  endfacet
  facet normal 0 0 1
    outer loop
      vertex 8.68354 3.65637 1
      vertex 8.54748 3.75164 1
      vertex 7.78212 3.61153 1
    endloop
  endfacet
  facet normal 0 0 1
    outer loop
      vertex 8.54748 3.75164 1
      vertex 7.92952 3.73483 1
      vertex 7.78212 3.61153 1
    endloop
  endfacet
  facet normal -0 0 1
    outer loop
      vertex 8.03724 3.80208 1
      vertex 7.92952 3.73483 1
      vertex 8.26968 3.84131 1
    endloop
  endfacet
  facet normal 0 0 1
    outer loop
      vertex 7.92952 3.73483 1
      vertex 8.39441 3.8189 1
      vertex 8.26968 3.84131 1
    endloop
  endfacet
  facet normal 0 0 1
    outer loop
      vertex 8.54748 3.75164 1
      vertex 8.39441 3.8189 1
      vertex 7.92952 3.73483 1
    endloop
  endfacet
  facet normal 0 0 1
    outer loop
      vertex 8.79126 3.53307 1
      vertex 8.68354 3.65637 1
      vertex 7.78212 3.61153 1
    endloop
  endfacet
  facet normal 0 0 1
    outer loop
      vertex 8.84795 2.92778 1
      vertex 7.78212 3.61153 1
      vertex 7.33425 3.12954 1
    endloop
  endfacet
  facet normal 0 0 1
    outer loop
      vertex 8.84795 2.92778 1
      vertex 7.33425 3.12954 1
      vertex 7.71976 1.56589 1
    endloop
  endfacet
  facet normal 0 0 1
    outer loop
      vertex 7.33425 3.12954 1
      vertex 6.05866 1.66677 1
      vertex 7.71976 1.56589 1
    endloop
  endfacet
  facet normal 0 0 1
    outer loop
      vertex 6.05866 1.66677 1
      vertex 7.60071 1.43699 1
      vertex 7.71976 1.56589 1
    endloop
  endfacet
  facet normal -0 0 1
    outer loop
      vertex 5.72984 1.3193 1
      vertex 6.79 0.456205 1
      vertex 6.05866 1.66677 1
    endloop
  endfacet
  facet normal 0 0 1
    outer loop
      vertex 5.53708 1.15677 1
      vertex 6.47819 0.00784628 1
      vertex 6.55756 0.136749 1
    endloop
  endfacet
  facet normal -0 0 1
    outer loop
      vertex 5.48039 1.13995 1
      vertex 6.47819 0.00784628 1
      vertex 5.53708 1.15677 1
    endloop
  endfacet
  facet normal 0 0 1
    outer loop
      vertex 5.44637 1.14556 1
      vertex 4.65267 0.0470777 1
      vertex 5.48039 1.13995 1
    endloop
  endfacet
  facet normal 0 0 1
    outer loop
      vertex 3.41677 1.47622 1
      vertex 4.65267 0.0470777 1
      vertex 5.44637 1.14556 1
    endloop
  endfacet
  facet normal -0 0 1
    outer loop
      vertex 2.28858 3.58351 1
      vertex 2.1922 3.36493 1
      vertex 2.36228 3.65637 1
    endloop
  endfacet
  facet normal 0 0 1
    outer loop
      vertex 3.02559 3.80769 1
      vertex 2.81582 3.83571 1
      vertex 3.16732 3.74043 1
    endloop
  endfacet
  facet normal 0 0 1
    outer loop
      vertex 2.81582 3.83571 1
      vertex 2.59472 3.79087 1
      vertex 3.16732 3.74043 1
    endloop
  endfacet
  facet normal 0 0 1
    outer loop
      vertex 2.1922 3.36493 1
      vertex 2.43598 3.71241 1
      vertex 2.36228 3.65637 1
    endloop
  endfacet
  facet normal -0 0 1
    outer loop
      vertex 2.22622 3.48263 1
      vertex 2.1922 3.36493 1
      vertex 2.28858 3.58351 1
    endloop
  endfacet
  facet normal -0 0 1
    outer loop
      vertex 2.1922 3.36493 1
      vertex 2.18086 3.18559 1
      vertex 2.43598 3.71241 1
    endloop
  endfacet
  facet normal 0 0 1
    outer loop
      vertex 2.18086 3.18559 1
      vertex 2.59472 3.79087 1
      vertex 2.43598 3.71241 1
    endloop
  endfacet
  facet normal -0 -0 1
    outer loop
      vertex 2.18653 3.11273 1
      vertex 2.21488 3.00624 1
      vertex 2.18086 3.18559 1
    endloop
  endfacet
  facet normal -0 -0 1
    outer loop
      vertex 2.21488 3.00624 1
      vertex 2.27724 2.88295 1
      vertex 2.18086 3.18559 1
    endloop
  endfacet
  facet normal 0 -0 1
    outer loop
      vertex 2.27724 2.88295 1
      vertex 2.59472 3.79087 1
      vertex 2.18086 3.18559 1
    endloop
  endfacet
  facet normal 0 0 1
    outer loop
      vertex 3.16732 3.74043 1
      vertex 2.59472 3.79087 1
      vertex 2.27724 2.88295 1
    endloop
  endfacet
  facet normal 0 0 1
    outer loop
      vertex 3.16732 3.74043 1
      vertex 2.27724 2.88295 1
      vertex 3.60952 3.26405 1
    endloop
  endfacet
  facet normal -0 0 1
    outer loop
      vertex 2.27724 2.88295 1
      vertex 2.53236 2.52426 1
      vertex 3.60952 3.26405 1
    endloop
  endfacet
  facet normal -0 0 1
    outer loop
      vertex 2.53236 2.52426 1
      vertex 3.41677 1.47622 1
      vertex 3.60952 3.26405 1
    endloop
  endfacet
  facet normal -0 0 1
    outer loop
      vertex 3.41677 1.47622 1
      vertex 5.44637 1.14556 1
      vertex 3.60952 3.26405 1
    endloop
  endfacet
  facet normal 0 0 1
    outer loop
      vertex 4.65267 0.0470777 1
      vertex 5.2196 -1.35404 1
      vertex 5.54275 -1.02338 1
    endloop
  endfacet
  facet normal 0 0 1
    outer loop
      vertex 3.30338 -3.51177 1
      vertex 2.39063 -2.62066 1
      vertex 2.28291 -2.77758 1
    endloop
  endfacet
  facet normal 0 0 1
    outer loop
      vertex 2.20921 -3.3044 1
      vertex 2.4133 -3.60144 1
      vertex 2.56637 -3.68551 1
    endloop
  endfacet
  facet normal 0 0 1
    outer loop
      vertex 2.18086 -3.15308 1
      vertex 2.22055 -2.90088 1
      vertex 2.18653 -3.00737 1
    endloop
  endfacet
  facet normal 0 0 1
    outer loop
      vertex 2.20921 -3.3044 1
      vertex 2.74779 -3.72474 1
      vertex 2.93488 -3.70793 1
    endloop
  endfacet
  facet normal -0 -0 1
    outer loop
      vertex 2.28858 -3.47254 1
      vertex 2.4133 -3.60144 1
      vertex 2.20921 -3.3044 1
    endloop
  endfacet
  facet normal 0 0 1
    outer loop
      vertex 2.20921 -3.3044 1
      vertex 2.56637 -3.68551 1
      vertex 2.74779 -3.72474 1
    endloop
  endfacet
  facet normal 0 0 1
    outer loop
      vertex 2.18086 -3.15308 1
      vertex 2.20921 -3.3044 1
      vertex 2.93488 -3.70793 1
    endloop
  endfacet
  facet normal -0 0 1
    outer loop
      vertex 2.18086 -3.15308 1
      vertex 2.93488 -3.70793 1
      vertex 2.22055 -2.90088 1
    endloop
  endfacet
  facet normal 0 0 1
    outer loop
      vertex 2.93488 -3.70793 1
      vertex 2.28291 -2.77758 1
      vertex 2.22055 -2.90088 1
    endloop
  endfacet
  facet normal 0 0 1
    outer loop
      vertex 3.12197 -3.64067 1
      vertex 2.28291 -2.77758 1
      vertex 2.93488 -3.70793 1
    endloop
  endfacet
  facet normal 0 0 1
    outer loop
      vertex 6.1437 -1.66229 1
      vertex 7.56102 -3.2988 1
      vertex 8.49645 -2.40208 1
    endloop
  endfacet
  facet normal -0 -0 1
    outer loop
      vertex 7.90685 -3.62946 1
      vertex 8.27535 -3.73034 1
      vertex 7.75945 -3.50056 1
    endloop
  endfacet
  facet normal 0 0 1
    outer loop
      vertex 3.30338 -3.51177 1
      vertex 2.28291 -2.77758 1
      vertex 3.12197 -3.64067 1
    endloop
  endfacet
  facet normal 0 0 1
    outer loop
      vertex 3.75693 -3.02418 1
      vertex 2.7648 -2.14428 1
      vertex 2.39063 -2.62066 1
    endloop
  endfacet
  facet normal -0 0 1
    outer loop
      vertex 7.75945 -3.50056 1
      vertex 8.27535 -3.73034 1
      vertex 8.87063 -2.90088 1
    endloop
  endfacet
  facet normal 0 0 1
    outer loop
      vertex 5.2196 -1.35404 1
      vertex 2.7648 -2.14428 1
      vertex 3.75693 -3.02418 1
    endloop
  endfacet
  facet normal 0 0 1
    outer loop
      vertex 4.65267 0.0470777 1
      vertex 2.7648 -2.14428 1
      vertex 5.2196 -1.35404 1
    endloop
  endfacet
  facet normal 0 0 1
    outer loop
      vertex 6.47819 0.00784628 1
      vertex 4.65267 0.0470777 1
      vertex 5.55976 -1.02338 1
    endloop
  endfacet
  facet normal 0 0 1
    outer loop
      vertex 5.55976 -1.02338 1
      vertex 4.65267 0.0470777 1
      vertex 5.54275 -1.02338 1
    endloop
  endfacet
  facet normal 0 0 1
    outer loop
      vertex 6.47819 0.00784628 1
      vertex 5.55976 -1.02338 1
      vertex 6.5859 -0.149079 1
    endloop
  endfacet
  facet normal 0 0 1
    outer loop
      vertex 6.5859 -0.149079 1
      vertex 6.1437 -1.66229 1
      vertex 8.49645 -2.40208 1
    endloop
  endfacet
  facet normal 0 0 1
    outer loop
      vertex 8.87063 -2.90088 1
      vertex 8.49645 -2.40208 1
      vertex 7.75945 -3.50056 1
    endloop
  endfacet
  facet normal -0 -0 1
    outer loop
      vertex 8.02023 -3.69672 1
      vertex 8.11661 -3.72474 1
      vertex 7.90685 -3.62946 1
    endloop
  endfacet
  facet normal -0 -0 1
    outer loop
      vertex 8.11661 -3.72474 1
      vertex 8.27535 -3.73034 1
      vertex 7.90685 -3.62946 1
    endloop
  endfacet
  facet normal 0.626221 -0.779646 0
    outer loop
      vertex 0.820233 -6.76797 0
      vertex 0.638816 -6.91369 1
      vertex 0.638816 -6.91369 0
    endloop
  endfacet
  facet normal 0.626221 -0.779646 0
    outer loop
      vertex 0.820233 -6.76797 0
      vertex 0.820233 -6.76797 1
      vertex 0.638816 -6.91369 1
    endloop
  endfacet
  facet normal 0.70303 -0.71116 0
    outer loop
      vertex 1.05267 -6.53819 0
      vertex 0.820233 -6.76797 1
      vertex 0.820233 -6.76797 0
    endloop
  endfacet
  facet normal 0.70303 -0.71116 0
    outer loop
      vertex 1.05267 -6.53819 0
      vertex 1.05267 -6.53819 1
      vertex 0.820233 -6.76797 1
    endloop
  endfacet
  facet normal 1 0 0
    outer loop
      vertex 1.05267 6.56509 0
      vertex 1.05267 -6.53819 1
      vertex 1.05267 -6.53819 0
    endloop
  endfacet
  facet normal 1 0 -0
    outer loop
      vertex 1.05267 6.56509 0
      vertex 1.05267 6.56509 1
      vertex 1.05267 -6.53819 1
    endloop
  endfacet
  facet normal 0.70303 0.71116 0
    outer loop
      vertex 0.786217 6.8285 0
      vertex 1.05267 6.56509 1
      vertex 1.05267 6.56509 0
    endloop
  endfacet
  facet normal 0.70303 0.71116 -0
    outer loop
      vertex 0.786217 6.8285 0
      vertex 0.786217 6.8285 1
      vertex 1.05267 6.56509 1
    endloop
  endfacet
  facet normal 0.631347 0.775501 0
    outer loop
      vertex 0.689839 6.90697 0
      vertex 0.786217 6.8285 1
      vertex 0.786217 6.8285 0
    endloop
  endfacet
  facet normal 0.631347 0.775501 -0
    outer loop
      vertex 0.689839 6.90697 0
      vertex 0.689839 6.90697 1
      vertex 0.786217 6.8285 1
    endloop
  endfacet
  facet normal 0.521984 0.852955 0
    outer loop
      vertex 0.570784 6.97982 0
      vertex 0.689839 6.90697 1
      vertex 0.689839 6.90697 0
    endloop
  endfacet
  facet normal 0.521984 0.852955 -0
    outer loop
      vertex 0.570784 6.97982 0
      vertex 0.570784 6.97982 1
      vertex 0.689839 6.90697 1
    endloop
  endfacet
  facet normal 0.271814 0.96235 0
    outer loop
      vertex 0.451729 7.01345 0
      vertex 0.570784 6.97982 1
      vertex 0.570784 6.97982 0
    endloop
  endfacet
  facet normal 0.271814 0.96235 -0
    outer loop
      vertex 0.451729 7.01345 0
      vertex 0.451729 7.01345 1
      vertex 0.570784 6.97982 1
    endloop
  endfacet
  facet normal 0 1 0
    outer loop
      vertex 0.327005 7.01345 0
      vertex 0.451729 7.01345 1
      vertex 0.451729 7.01345 0
    endloop
  endfacet
  facet normal 0 1 0
    outer loop
      vertex 0.327005 7.01345 0
      vertex 0.327005 7.01345 1
      vertex 0.451729 7.01345 1
    endloop
  endfacet
  facet normal -0.30161 0.953431 0
    outer loop
      vertex 0.185272 6.96861 0
      vertex 0.327005 7.01345 1
      vertex 0.327005 7.01345 0
    endloop
  endfacet
  facet normal -0.30161 0.953431 0
    outer loop
      vertex 0.185272 6.96861 0
      vertex 0.185272 6.96861 1
      vertex 0.327005 7.01345 1
    endloop
  endfacet
  facet normal -0.491845 0.870683 0
    outer loop
      vertex 0.0265323 6.87894 0
      vertex 0.185272 6.96861 1
      vertex 0.185272 6.96861 0
    endloop
  endfacet
  facet normal -0.491845 0.870683 0
    outer loop
      vertex 0.0265323 6.87894 0
      vertex 0.0265323 6.87894 1
      vertex 0.185272 6.96861 1
    endloop
  endfacet
  facet normal -0.567369 0.823464 0
    outer loop
      vertex -0.160554 6.75004 0
      vertex 0.0265323 6.87894 1
      vertex 0.0265323 6.87894 0
    endloop
  endfacet
  facet normal -0.567369 0.823464 0
    outer loop
      vertex -0.160554 6.75004 0
      vertex -0.160554 6.75004 1
      vertex 0.0265323 6.87894 1
    endloop
  endfacet
  facet normal -0.647548 0.762025 0
    outer loop
      vertex -4.11772 3.38735 0
      vertex -0.160554 6.75004 1
      vertex -0.160554 6.75004 0
    endloop
  endfacet
  facet normal -0.647548 0.762025 0
    outer loop
      vertex -4.11772 3.38735 0
      vertex -4.11772 3.38735 1
      vertex -0.160554 6.75004 1
    endloop
  endfacet
  facet normal -0.672399 0.740189 0
    outer loop
      vertex -4.32748 3.1968 0
      vertex -4.11772 3.38735 1
      vertex -4.11772 3.38735 0
    endloop
  endfacet
  facet normal -0.672399 0.740189 0
    outer loop
      vertex -4.32748 3.1968 0
      vertex -4.32748 3.1968 1
      vertex -4.11772 3.38735 1
    endloop
  endfacet
  facet normal 0 1 0
    outer loop
      vertex -7.7404 3.1968 0
      vertex -4.32748 3.1968 1
      vertex -4.32748 3.1968 0
    endloop
  endfacet
  facet normal 0 1 0
    outer loop
      vertex -7.7404 3.1968 0
      vertex -7.7404 3.1968 1
      vertex -4.32748 3.1968 1
    endloop
  endfacet
  facet normal -0.0493682 0.998781 0
    outer loop
      vertex -8.19394 3.17438 0
      vertex -7.7404 3.1968 1
      vertex -7.7404 3.1968 0
    endloop
  endfacet
  facet normal -0.0493682 0.998781 0
    outer loop
      vertex -8.19394 3.17438 0
      vertex -8.19394 3.17438 1
      vertex -7.7404 3.1968 1
    endloop
  endfacet
  facet normal -0.13743 0.990511 0
    outer loop
      vertex -8.51709 3.12954 0
      vertex -8.19394 3.17438 1
      vertex -8.19394 3.17438 0
    endloop
  endfacet
  facet normal -0.13743 0.990511 0
    outer loop
      vertex -8.51709 3.12954 0
      vertex -8.51709 3.12954 1
      vertex -8.19394 3.17438 1
    endloop
  endfacet
  facet normal -0.297996 0.954567 0
    outer loop
      vertex -8.73252 3.06229 0
      vertex -8.51709 3.12954 1
      vertex -8.51709 3.12954 0
    endloop
  endfacet
  facet normal -0.297996 0.954567 0
    outer loop
      vertex -8.73252 3.06229 0
      vertex -8.73252 3.06229 1
      vertex -8.51709 3.12954 1
    endloop
  endfacet
  facet normal -0.557891 0.829914 0
    outer loop
      vertex -8.87426 2.96701 0
      vertex -8.73252 3.06229 1
      vertex -8.73252 3.06229 0
    endloop
  endfacet
  facet normal -0.557891 0.829914 0
    outer loop
      vertex -8.87426 2.96701 0
      vertex -8.87426 2.96701 1
      vertex -8.73252 3.06229 1
    endloop
  endfacet
  facet normal -0.817809 0.575489 0
    outer loop
      vertex -8.96496 2.83811 0
      vertex -8.87426 2.96701 1
      vertex -8.87426 2.96701 0
    endloop
  endfacet
  facet normal -0.817809 0.575489 0
    outer loop
      vertex -8.96496 2.83811 0
      vertex -8.96496 2.83811 1
      vertex -8.87426 2.96701 1
    endloop
  endfacet
  facet normal -0.947582 0.319513 0
    outer loop
      vertex -9.03866 2.61954 0
      vertex -8.96496 2.83811 1
      vertex -8.96496 2.83811 0
    endloop
  endfacet
  facet normal -0.947582 0.319513 0
    outer loop
      vertex -9.03866 2.61954 0
      vertex -9.03866 2.61954 1
      vertex -8.96496 2.83811 1
    endloop
  endfacet
  facet normal -0.993153 0.116818 0
    outer loop
      vertex -9.06701 2.37854 0
      vertex -9.03866 2.61954 1
      vertex -9.03866 2.61954 0
    endloop
  endfacet
  facet normal -0.993153 0.116818 0
    outer loop
      vertex -9.06701 2.37854 0
      vertex -9.06701 2.37854 1
      vertex -9.03866 2.61954 1
    endloop
  endfacet
  facet normal -0.999182 0.0404295 0
    outer loop
      vertex -9.08969 1.81809 0
      vertex -9.06701 2.37854 1
      vertex -9.06701 2.37854 0
    endloop
  endfacet
  facet normal -0.999182 0.0404295 0
    outer loop
      vertex -9.08969 1.81809 0
      vertex -9.08969 1.81809 1
      vertex -9.06701 2.37854 1
    endloop
  endfacet
  facet normal -1 0 0
    outer loop
      vertex -9.08969 -0.171497 0
      vertex -9.08969 1.81809 1
      vertex -9.08969 1.81809 0
    endloop
  endfacet
  facet normal -1 0 0
    outer loop
      vertex -9.08969 -0.171497 0
      vertex -9.08969 -0.171497 1
      vertex -9.08969 1.81809 1
    endloop
  endfacet
  facet normal -0.99996 -0.00893177 0
    outer loop
      vertex -9.06701 -2.71033 0
      vertex -9.08969 -0.171497 1
      vertex -9.08969 -0.171497 0
    endloop
  endfacet
  facet normal -0.99996 -0.00893177 0
    outer loop
      vertex -9.06701 -2.71033 0
      vertex -9.06701 -2.71033 1
      vertex -9.08969 -0.171497 1
    endloop
  endfacet
  facet normal -0.643319 -0.765598 0
    outer loop
      vertex -8.61347 -3.09143 0
      vertex -9.06701 -2.71033 1
      vertex -9.06701 -2.71033 0
    endloop
  endfacet
  facet normal -0.643319 -0.765598 0
    outer loop
      vertex -8.61347 -3.09143 0
      vertex -8.61347 -3.09143 1
      vertex -9.06701 -2.71033 1
    endloop
  endfacet
  facet normal 0 -1 0
    outer loop
      vertex -4.45788 -3.09143 0
      vertex -8.61347 -3.09143 1
      vertex -8.61347 -3.09143 0
    endloop
  endfacet
  facet normal 0 -1 0
    outer loop
      vertex -4.45788 -3.09143 0
      vertex -4.45788 -3.09143 1
      vertex -8.61347 -3.09143 1
    endloop
  endfacet
  facet normal -0.64791 -0.761717 0
    outer loop
      vertex -1.00528 -6.02818 0
      vertex -4.45788 -3.09143 1
      vertex -4.45788 -3.09143 0
    endloop
  endfacet
  facet normal -0.64791 -0.761717 0
    outer loop
      vertex -1.00528 -6.02818 0
      vertex -1.00528 -6.02818 1
      vertex -4.45788 -3.09143 1
    endloop
  endfacet
  facet normal -0.629524 -0.776981 0
    outer loop
      vertex 0.0945638 -6.9193 0
      vertex -1.00528 -6.02818 1
      vertex -1.00528 -6.02818 0
    endloop
  endfacet
  facet normal -0.629524 -0.776981 0
    outer loop
      vertex 0.0945638 -6.9193 0
      vertex 0.0945638 -6.9193 1
      vertex -1.00528 -6.02818 1
    endloop
  endfacet
  facet normal -0.491845 -0.870683 0
    outer loop
      vertex 0.134249 -6.94171 0
      vertex 0.0945638 -6.9193 1
      vertex 0.0945638 -6.9193 0
    endloop
  endfacet
  facet normal -0.491845 -0.870683 0
    outer loop
      vertex 0.134249 -6.94171 0
      vertex 0.134249 -6.94171 1
      vertex 0.0945638 -6.9193 1
    endloop
  endfacet
  facet normal -0.29101 -0.95672 0
    outer loop
      vertex 0.28165 -6.98655 0
      vertex 0.134249 -6.94171 1
      vertex 0.134249 -6.94171 0
    endloop
  endfacet
  facet normal -0.29101 -0.95672 0
    outer loop
      vertex 0.28165 -6.98655 0
      vertex 0.28165 -6.98655 1
      vertex 0.134249 -6.94171 1
    endloop
  endfacet
  facet normal 0 -1 0
    outer loop
      vertex 0.457398 -6.98655 0
      vertex 0.28165 -6.98655 1
      vertex 0.28165 -6.98655 0
    endloop
  endfacet
  facet normal 0 -1 0
    outer loop
      vertex 0.457398 -6.98655 0
      vertex 0.457398 -6.98655 1
      vertex 0.28165 -6.98655 1
    endloop
  endfacet
  facet normal 0.372675 -0.927962 0
    outer loop
      vertex 0.638816 -6.91369 0
      vertex 0.457398 -6.98655 1
      vertex 0.457398 -6.98655 0
    endloop
  endfacet
  facet normal 0.372675 -0.927962 0
    outer loop
      vertex 0.638816 -6.91369 0
      vertex 0.638816 -6.91369 1
      vertex 0.457398 -6.98655 1
    endloop
  endfacet
  facet normal 0.303819 -0.95273 0
    outer loop
      vertex 8.62118 -3.65188 0
      vertex 8.44543 -3.70793 1
      vertex 8.44543 -3.70793 0
    endloop
  endfacet
  facet normal 0.303819 -0.95273 0
    outer loop
      vertex 8.62118 -3.65188 0
      vertex 8.62118 -3.65188 1
      vertex 8.44543 -3.70793 1
    endloop
  endfacet
  facet normal 0.491845 -0.870683 0
    outer loop
      vertex 8.66086 -3.62946 0
      vertex 8.62118 -3.65188 1
      vertex 8.62118 -3.65188 0
    endloop
  endfacet
  facet normal 0.491845 -0.870683 0
    outer loop
      vertex 8.66086 -3.62946 0
      vertex 8.66086 -3.62946 1
      vertex 8.62118 -3.65188 1
    endloop
  endfacet
  facet normal 0.70303 -0.71116 0
    outer loop
      vertex 8.76858 -3.52298 0
      vertex 8.66086 -3.62946 1
      vertex 8.66086 -3.62946 0
    endloop
  endfacet
  facet normal 0.70303 -0.71116 0
    outer loop
      vertex 8.76858 -3.52298 0
      vertex 8.76858 -3.52298 1
      vertex 8.66086 -3.62946 1
    endloop
  endfacet
  facet normal 0.892354 -0.451336 0
    outer loop
      vertex 8.86496 -3.33243 0
      vertex 8.76858 -3.52298 1
      vertex 8.76858 -3.52298 0
    endloop
  endfacet
  facet normal 0.892354 -0.451336 0
    outer loop
      vertex 8.86496 -3.33243 0
      vertex 8.86496 -3.33243 1
      vertex 8.76858 -3.52298 1
    endloop
  endfacet
  facet normal 0.978067 -0.20829 0
    outer loop
      vertex 8.91031 -3.11946 0
      vertex 8.86496 -3.33243 1
      vertex 8.86496 -3.33243 0
    endloop
  endfacet
  facet normal 0.978067 -0.20829 0
    outer loop
      vertex 8.91031 -3.11946 0
      vertex 8.91031 -3.11946 1
      vertex 8.86496 -3.33243 1
    endloop
  endfacet
  facet normal 0.997204 0.0747212 0
    outer loop
      vertex 8.89897 -2.96813 0
      vertex 8.91031 -3.11946 1
      vertex 8.91031 -3.11946 0
    endloop
  endfacet
  facet normal 0.997204 0.0747212 -0
    outer loop
      vertex 8.89897 -2.96813 0
      vertex 8.89897 -2.96813 1
      vertex 8.91031 -3.11946 1
    endloop
  endfacet
  facet normal 0.921493 0.388395 0
    outer loop
      vertex 8.87063 -2.90088 0
      vertex 8.89897 -2.96813 1
      vertex 8.89897 -2.96813 0
    endloop
  endfacet
  facet normal 0.921493 0.388395 -0
    outer loop
      vertex 8.87063 -2.90088 0
      vertex 8.87063 -2.90088 1
      vertex 8.89897 -2.96813 1
    endloop
  endfacet
  facet normal 0.799943 0.600076 0
    outer loop
      vertex 8.49645 -2.40208 0
      vertex 8.87063 -2.90088 1
      vertex 8.87063 -2.90088 0
    endloop
  endfacet
  facet normal 0.799943 0.600076 -0
    outer loop
      vertex 8.49645 -2.40208 0
      vertex 8.49645 -2.40208 1
      vertex 8.87063 -2.90088 1
    endloop
  endfacet
  facet normal 0.762691 0.646763 0
    outer loop
      vertex 6.5859 -0.149079 0
      vertex 8.49645 -2.40208 1
      vertex 8.49645 -2.40208 0
    endloop
  endfacet
  facet normal 0.762691 0.646763 -0
    outer loop
      vertex 6.5859 -0.149079 0
      vertex 6.5859 -0.149079 1
      vertex 8.49645 -2.40208 1
    endloop
  endfacet
  facet normal 0.824458 0.565923 0
    outer loop
      vertex 6.47819 0.00784628 0
      vertex 6.5859 -0.149079 1
      vertex 6.5859 -0.149079 0
    endloop
  endfacet
  facet normal 0.824458 0.565923 -0
    outer loop
      vertex 6.47819 0.00784628 0
      vertex 6.47819 0.00784628 1
      vertex 6.5859 -0.149079 1
    endloop
  endfacet
  facet normal 0.851525 -0.524313 0
    outer loop
      vertex 6.55756 0.136749 0
      vertex 6.47819 0.00784628 1
      vertex 6.47819 0.00784628 0
    endloop
  endfacet
  facet normal 0.851525 -0.524313 0
    outer loop
      vertex 6.55756 0.136749 0
      vertex 6.55756 0.136749 1
      vertex 6.47819 0.00784628 1
    endloop
  endfacet
  facet normal 0.808604 -0.588353 0
    outer loop
      vertex 6.79 0.456205 0
      vertex 6.55756 0.136749 1
      vertex 6.55756 0.136749 0
    endloop
  endfacet
  facet normal 0.808604 -0.588353 0
    outer loop
      vertex 6.79 0.456205 0
      vertex 6.79 0.456205 1
      vertex 6.55756 0.136749 1
    endloop
  endfacet
  facet normal 0.770771 -0.637113 0
    outer loop
      vertex 7.60071 1.43699 0
      vertex 6.79 0.456205 1
      vertex 6.79 0.456205 0
    endloop
  endfacet
  facet normal 0.770771 -0.637113 0
    outer loop
      vertex 7.60071 1.43699 0
      vertex 7.60071 1.43699 1
      vertex 6.79 0.456205 1
    endloop
  endfacet
  facet normal 0.734611 -0.678488 0
    outer loop
      vertex 7.71976 1.56589 0
      vertex 7.60071 1.43699 1
      vertex 7.60071 1.43699 0
    endloop
  endfacet
  facet normal 0.734611 -0.678488 0
    outer loop
      vertex 7.71976 1.56589 0
      vertex 7.71976 1.56589 1
      vertex 7.60071 1.43699 1
    endloop
  endfacet
  facet normal 0.770086 -0.637939 0
    outer loop
      vertex 8.84795 2.92778 0
      vertex 7.71976 1.56589 1
      vertex 7.71976 1.56589 0
    endloop
  endfacet
  facet normal 0.770086 -0.637939 0
    outer loop
      vertex 8.84795 2.92778 0
      vertex 8.84795 2.92778 1
      vertex 7.71976 1.56589 1
    endloop
  endfacet
  facet normal 0.892354 -0.451336 0
    outer loop
      vertex 8.8763 2.98383 0
      vertex 8.84795 2.92778 1
      vertex 8.84795 2.92778 0
    endloop
  endfacet
  facet normal 0.892354 -0.451336 0
    outer loop
      vertex 8.8763 2.98383 0
      vertex 8.8763 2.98383 1
      vertex 8.84795 2.92778 1
    endloop
  endfacet
  facet normal 0.952579 -0.304293 0
    outer loop
      vertex 8.91031 3.09031 0
      vertex 8.8763 2.98383 1
      vertex 8.8763 2.98383 0
    endloop
  endfacet
  facet normal 0.952579 -0.304293 0
    outer loop
      vertex 8.91031 3.09031 0
      vertex 8.91031 3.09031 1
      vertex 8.8763 2.98383 1
    endloop
  endfacet
  facet normal 1 0 0
    outer loop
      vertex 8.91031 3.24163 0
      vertex 8.91031 3.09031 1
      vertex 8.91031 3.09031 0
    endloop
  endfacet
  facet normal 1 0 -0
    outer loop
      vertex 8.91031 3.24163 0
      vertex 8.91031 3.24163 1
      vertex 8.91031 3.09031 1
    endloop
  endfacet
  facet normal 0.967289 0.253678 0
    outer loop
      vertex 8.87063 3.39295 0
      vertex 8.91031 3.24163 1
      vertex 8.91031 3.24163 0
    endloop
  endfacet
  facet normal 0.967289 0.253678 -0
    outer loop
      vertex 8.87063 3.39295 0
      vertex 8.87063 3.39295 1
      vertex 8.91031 3.24163 1
    endloop
  endfacet
  facet normal 0.870093 0.492887 0
    outer loop
      vertex 8.79126 3.53307 0
      vertex 8.87063 3.39295 1
      vertex 8.87063 3.39295 0
    endloop
  endfacet
  facet normal 0.870093 0.492887 -0
    outer loop
      vertex 8.79126 3.53307 0
      vertex 8.79126 3.53307 1
      vertex 8.87063 3.39295 1
    endloop
  endfacet
  facet normal 0.75309 0.657917 0
    outer loop
      vertex 8.68354 3.65637 0
      vertex 8.79126 3.53307 1
      vertex 8.79126 3.53307 0
    endloop
  endfacet
  facet normal 0.75309 0.657917 -0
    outer loop
      vertex 8.68354 3.65637 0
      vertex 8.68354 3.65637 1
      vertex 8.79126 3.53307 1
    endloop
  endfacet
  facet normal 0.573592 0.819141 0
    outer loop
      vertex 8.54748 3.75164 0
      vertex 8.68354 3.65637 1
      vertex 8.68354 3.65637 0
    endloop
  endfacet
  facet normal 0.573592 0.819141 -0
    outer loop
      vertex 8.54748 3.75164 0
      vertex 8.54748 3.75164 1
      vertex 8.68354 3.65637 1
    endloop
  endfacet
  facet normal 0.402251 0.91553 0
    outer loop
      vertex 8.39441 3.8189 0
      vertex 8.54748 3.75164 1
      vertex 8.54748 3.75164 0
    endloop
  endfacet
  facet normal 0.402251 0.91553 -0
    outer loop
      vertex 8.39441 3.8189 0
      vertex 8.39441 3.8189 1
      vertex 8.54748 3.75164 1
    endloop
  endfacet
  facet normal 0.176905 0.984228 0
    outer loop
      vertex 8.26968 3.84131 0
      vertex 8.39441 3.8189 1
      vertex 8.39441 3.8189 0
    endloop
  endfacet
  facet normal 0.176905 0.984228 -0
    outer loop
      vertex 8.26968 3.84131 0
      vertex 8.26968 3.84131 1
      vertex 8.39441 3.8189 1
    endloop
  endfacet
  facet normal -0.0411555 0.999153 0
    outer loop
      vertex 8.13362 3.83571 0
      vertex 8.26968 3.84131 1
      vertex 8.26968 3.84131 0
    endloop
  endfacet
  facet normal -0.0411555 0.999153 0
    outer loop
      vertex 8.13362 3.83571 0
      vertex 8.13362 3.83571 1
      vertex 8.26968 3.84131 1
    endloop
  endfacet
  facet normal -0.329431 0.94418 0
    outer loop
      vertex 8.03724 3.80208 0
      vertex 8.13362 3.83571 1
      vertex 8.13362 3.83571 0
    endloop
  endfacet
  facet normal -0.329431 0.94418 0
    outer loop
      vertex 8.03724 3.80208 0
      vertex 8.03724 3.80208 1
      vertex 8.13362 3.83571 1
    endloop
  endfacet
  facet normal -0.529608 0.848243 0
    outer loop
      vertex 7.92952 3.73483 0
      vertex 8.03724 3.80208 1
      vertex 8.03724 3.80208 0
    endloop
  endfacet
  facet normal -0.529608 0.848243 0
    outer loop
      vertex 7.92952 3.73483 0
      vertex 7.92952 3.73483 1
      vertex 8.03724 3.80208 1
    endloop
  endfacet
  facet normal -0.641608 0.767033 0
    outer loop
      vertex 7.78212 3.61153 0
      vertex 7.92952 3.73483 1
      vertex 7.92952 3.73483 0
    endloop
  endfacet
  facet normal -0.641608 0.767033 0
    outer loop
      vertex 7.78212 3.61153 0
      vertex 7.78212 3.61153 1
      vertex 7.92952 3.73483 1
    endloop
  endfacet
  facet normal -0.732554 0.680709 0
    outer loop
      vertex 7.33425 3.12954 0
      vertex 7.78212 3.61153 1
      vertex 7.78212 3.61153 0
    endloop
  endfacet
  facet normal -0.732554 0.680709 0
    outer loop
      vertex 7.33425 3.12954 0
      vertex 7.33425 3.12954 1
      vertex 7.78212 3.61153 1
    endloop
  endfacet
  facet normal -0.753682 0.657239 0
    outer loop
      vertex 6.05866 1.66677 0
      vertex 7.33425 3.12954 1
      vertex 7.33425 3.12954 0
    endloop
  endfacet
  facet normal -0.753682 0.657239 0
    outer loop
      vertex 6.05866 1.66677 0
      vertex 6.05866 1.66677 1
      vertex 7.33425 3.12954 1
    endloop
  endfacet
  facet normal -0.72634 0.687336 0
    outer loop
      vertex 5.72984 1.3193 0
      vertex 6.05866 1.66677 1
      vertex 6.05866 1.66677 0
    endloop
  endfacet
  facet normal -0.72634 0.687336 0
    outer loop
      vertex 5.72984 1.3193 0
      vertex 5.72984 1.3193 1
      vertex 6.05866 1.66677 1
    endloop
  endfacet
  facet normal -0.644621 0.764502 0
    outer loop
      vertex 5.53708 1.15677 0
      vertex 5.72984 1.3193 1
      vertex 5.72984 1.3193 0
    endloop
  endfacet
  facet normal -0.644621 0.764502 0
    outer loop
      vertex 5.53708 1.15677 0
      vertex 5.53708 1.15677 1
      vertex 5.72984 1.3193 1
    endloop
  endfacet
  facet normal -0.28433 0.958726 0
    outer loop
      vertex 5.48039 1.13995 0
      vertex 5.53708 1.15677 1
      vertex 5.53708 1.15677 0
    endloop
  endfacet
  facet normal -0.28433 0.958726 0
    outer loop
      vertex 5.48039 1.13995 0
      vertex 5.48039 1.13995 1
      vertex 5.53708 1.15677 1
    endloop
  endfacet
  facet normal 0.16257 0.986697 0
    outer loop
      vertex 5.44637 1.14556 0
      vertex 5.48039 1.13995 1
      vertex 5.48039 1.13995 0
    endloop
  endfacet
  facet normal 0.16257 0.986697 -0
    outer loop
      vertex 5.44637 1.14556 0
      vertex 5.44637 1.14556 1
      vertex 5.48039 1.13995 1
    endloop
  endfacet
  facet normal 0.755544 0.655098 0
    outer loop
      vertex 3.60952 3.26405 0
      vertex 5.44637 1.14556 1
      vertex 5.44637 1.14556 0
    endloop
  endfacet
  facet normal 0.755544 0.655098 -0
    outer loop
      vertex 3.60952 3.26405 0
      vertex 3.60952 3.26405 1
      vertex 5.44637 1.14556 1
    endloop
  endfacet
  facet normal 0.732908 0.680328 0
    outer loop
      vertex 3.16732 3.74043 0
      vertex 3.60952 3.26405 1
      vertex 3.60952 3.26405 0
    endloop
  endfacet
  facet normal 0.732908 0.680328 -0
    outer loop
      vertex 3.16732 3.74043 0
      vertex 3.16732 3.74043 1
      vertex 3.60952 3.26405 1
    endloop
  endfacet
  facet normal 0.428698 0.903448 0
    outer loop
      vertex 3.02559 3.80769 0
      vertex 3.16732 3.74043 1
      vertex 3.16732 3.74043 0
    endloop
  endfacet
  facet normal 0.428698 0.903448 -0
    outer loop
      vertex 3.02559 3.80769 0
      vertex 3.02559 3.80769 1
      vertex 3.16732 3.74043 1
    endloop
  endfacet
  facet normal 0.132414 0.991194 0
    outer loop
      vertex 2.81582 3.83571 0
      vertex 3.02559 3.80769 1
      vertex 3.02559 3.80769 0
    endloop
  endfacet
  facet normal 0.132414 0.991194 -0
    outer loop
      vertex 2.81582 3.83571 0
      vertex 2.81582 3.83571 1
      vertex 3.02559 3.80769 1
    endloop
  endfacet
  facet normal -0.198738 0.980053 0
    outer loop
      vertex 2.59472 3.79087 0
      vertex 2.81582 3.83571 1
      vertex 2.81582 3.83571 0
    endloop
  endfacet
  facet normal -0.198738 0.980053 0
    outer loop
      vertex 2.59472 3.79087 0
      vertex 2.59472 3.79087 1
      vertex 2.81582 3.83571 1
    endloop
  endfacet
  facet normal -0.44311 0.896467 0
    outer loop
      vertex 2.43598 3.71241 0
      vertex 2.59472 3.79087 1
      vertex 2.59472 3.79087 0
    endloop
  endfacet
  facet normal -0.44311 0.896467 0
    outer loop
      vertex 2.43598 3.71241 0
      vertex 2.43598 3.71241 1
      vertex 2.59472 3.79087 1
    endloop
  endfacet
  facet normal -0.605304 0.795994 0
    outer loop
      vertex 2.36228 3.65637 0
      vertex 2.43598 3.71241 1
      vertex 2.43598 3.71241 0
    endloop
  endfacet
  facet normal -0.605304 0.795994 0
    outer loop
      vertex 2.36228 3.65637 0
      vertex 2.36228 3.65637 1
      vertex 2.43598 3.71241 1
    endloop
  endfacet
  facet normal -0.70303 0.71116 0
    outer loop
      vertex 2.28858 3.58351 0
      vertex 2.36228 3.65637 1
      vertex 2.36228 3.65637 0
    endloop
  endfacet
  facet normal -0.70303 0.71116 0
    outer loop
      vertex 2.28858 3.58351 0
      vertex 2.28858 3.58351 1
      vertex 2.36228 3.65637 1
    endloop
  endfacet
  facet normal -0.850596 0.52582 0
    outer loop
      vertex 2.22622 3.48263 0
      vertex 2.28858 3.58351 1
      vertex 2.28858 3.58351 0
    endloop
  endfacet
  facet normal -0.850596 0.52582 0
    outer loop
      vertex 2.22622 3.48263 0
      vertex 2.22622 3.48263 1
      vertex 2.28858 3.58351 1
    endloop
  endfacet
  facet normal -0.960681 0.277654 0
    outer loop
      vertex 2.1922 3.36493 0
      vertex 2.22622 3.48263 1
      vertex 2.22622 3.48263 0
    endloop
  endfacet
  facet normal -0.960681 0.277654 0
    outer loop
      vertex 2.1922 3.36493 0
      vertex 2.1922 3.36493 1
      vertex 2.22622 3.48263 1
    endloop
  endfacet
  facet normal -0.998007 0.0630967 0
    outer loop
      vertex 2.18086 3.18559 0
      vertex 2.1922 3.36493 1
      vertex 2.1922 3.36493 0
    endloop
  endfacet
  facet normal -0.998007 0.0630967 0
    outer loop
      vertex 2.18086 3.18559 0
      vertex 2.18086 3.18559 1
      vertex 2.1922 3.36493 1
    endloop
  endfacet
  facet normal -0.996986 -0.0775781 0
    outer loop
      vertex 2.18653 3.11273 0
      vertex 2.18086 3.18559 1
      vertex 2.18086 3.18559 0
    endloop
  endfacet
  facet normal -0.996986 -0.0775781 0
    outer loop
      vertex 2.18653 3.11273 0
      vertex 2.18653 3.11273 1
      vertex 2.18086 3.18559 1
    endloop
  endfacet
  facet normal -0.966347 -0.257242 0
    outer loop
      vertex 2.21488 3.00624 0
      vertex 2.18653 3.11273 1
      vertex 2.18653 3.11273 0
    endloop
  endfacet
  facet normal -0.966347 -0.257242 0
    outer loop
      vertex 2.21488 3.00624 0
      vertex 2.21488 3.00624 1
      vertex 2.18653 3.11273 1
    endloop
  endfacet
  facet normal -0.892354 -0.451336 0
    outer loop
      vertex 2.27724 2.88295 0
      vertex 2.21488 3.00624 1
      vertex 2.21488 3.00624 0
    endloop
  endfacet
  facet normal -0.892354 -0.451336 0
    outer loop
      vertex 2.27724 2.88295 0
      vertex 2.27724 2.88295 1
      vertex 2.21488 3.00624 1
    endloop
  endfacet
  facet normal -0.8149 -0.579602 0
    outer loop
      vertex 2.53236 2.52426 0
      vertex 2.27724 2.88295 1
      vertex 2.27724 2.88295 0
    endloop
  endfacet
  facet normal -0.8149 -0.579602 0
    outer loop
      vertex 2.53236 2.52426 0
      vertex 2.53236 2.52426 1
      vertex 2.27724 2.88295 1
    endloop
  endfacet
  facet normal -0.764246 -0.644925 0
    outer loop
      vertex 3.41677 1.47622 0
      vertex 2.53236 2.52426 1
      vertex 2.53236 2.52426 0
    endloop
  endfacet
  facet normal -0.764246 -0.644925 0
    outer loop
      vertex 3.41677 1.47622 0
      vertex 3.41677 1.47622 1
      vertex 2.53236 2.52426 1
    endloop
  endfacet
  facet normal -0.756392 -0.654119 0
    outer loop
      vertex 4.65267 0.0470777 0
      vertex 3.41677 1.47622 1
      vertex 3.41677 1.47622 0
    endloop
  endfacet
  facet normal -0.756392 -0.654119 0
    outer loop
      vertex 4.65267 0.0470777 0
      vertex 4.65267 0.0470777 1
      vertex 3.41677 1.47622 1
    endloop
  endfacet
  facet normal -0.757619 0.652697 0
    outer loop
      vertex 2.7648 -2.14428 0
      vertex 4.65267 0.0470777 1
      vertex 4.65267 0.0470777 0
    endloop
  endfacet
  facet normal -0.757619 0.652697 0
    outer loop
      vertex 2.7648 -2.14428 0
      vertex 2.7648 -2.14428 1
      vertex 4.65267 0.0470777 1
    endloop
  endfacet
  facet normal -0.78642 0.617693 0
    outer loop
      vertex 2.39063 -2.62066 0
      vertex 2.7648 -2.14428 1
      vertex 2.7648 -2.14428 0
    endloop
  endfacet
  facet normal -0.78642 0.617693 0
    outer loop
      vertex 2.39063 -2.62066 0
      vertex 2.39063 -2.62066 1
      vertex 2.7648 -2.14428 1
    endloop
  endfacet
  facet normal -0.824458 0.565923 0
    outer loop
      vertex 2.28291 -2.77758 0
      vertex 2.39063 -2.62066 1
      vertex 2.39063 -2.62066 0
    endloop
  endfacet
  facet normal -0.824458 0.565923 0
    outer loop
      vertex 2.28291 -2.77758 0
      vertex 2.28291 -2.77758 1
      vertex 2.39063 -2.62066 1
    endloop
  endfacet
  facet normal -0.892354 0.451336 0
    outer loop
      vertex 2.22055 -2.90088 0
      vertex 2.28291 -2.77758 1
      vertex 2.28291 -2.77758 0
    endloop
  endfacet
  facet normal -0.892354 0.451336 0
    outer loop
      vertex 2.22055 -2.90088 0
      vertex 2.22055 -2.90088 1
      vertex 2.28291 -2.77758 1
    endloop
  endfacet
  facet normal -0.952579 0.304293 0
    outer loop
      vertex 2.18653 -3.00737 0
      vertex 2.22055 -2.90088 1
      vertex 2.22055 -2.90088 0
    endloop
  endfacet
  facet normal -0.952579 0.304293 0
    outer loop
      vertex 2.18653 -3.00737 0
      vertex 2.18653 -3.00737 1
      vertex 2.22055 -2.90088 1
    endloop
  endfacet
  facet normal -0.999244 0.0388769 0
    outer loop
      vertex 2.18086 -3.15308 0
      vertex 2.18653 -3.00737 1
      vertex 2.18653 -3.00737 0
    endloop
  endfacet
  facet normal -0.999244 0.0388769 0
    outer loop
      vertex 2.18086 -3.15308 0
      vertex 2.18086 -3.15308 1
      vertex 2.18653 -3.00737 1
    endloop
  endfacet
  facet normal -0.982903 -0.184124 0
    outer loop
      vertex 2.20921 -3.3044 0
      vertex 2.18086 -3.15308 1
      vertex 2.18086 -3.15308 0
    endloop
  endfacet
  facet normal -0.982903 -0.184124 0
    outer loop
      vertex 2.20921 -3.3044 0
      vertex 2.20921 -3.3044 1
      vertex 2.18086 -3.15308 1
    endloop
  endfacet
  facet normal -0.904304 -0.426889 0
    outer loop
      vertex 2.28858 -3.47254 0
      vertex 2.20921 -3.3044 1
      vertex 2.20921 -3.3044 0
    endloop
  endfacet
  facet normal -0.904304 -0.426889 0
    outer loop
      vertex 2.28858 -3.47254 0
      vertex 2.28858 -3.47254 1
      vertex 2.20921 -3.3044 1
    endloop
  endfacet
  facet normal -0.718659 -0.695362 0
    outer loop
      vertex 2.4133 -3.60144 0
      vertex 2.28858 -3.47254 1
      vertex 2.28858 -3.47254 0
    endloop
  endfacet
  facet normal -0.718659 -0.695362 0
    outer loop
      vertex 2.4133 -3.60144 0
      vertex 2.4133 -3.60144 1
      vertex 2.28858 -3.47254 1
    endloop
  endfacet
  facet normal -0.481384 -0.87651 0
    outer loop
      vertex 2.56637 -3.68551 0
      vertex 2.4133 -3.60144 1
      vertex 2.4133 -3.60144 0
    endloop
  endfacet
  facet normal -0.481384 -0.87651 0
    outer loop
      vertex 2.56637 -3.68551 0
      vertex 2.56637 -3.68551 1
      vertex 2.4133 -3.60144 1
    endloop
  endfacet
  facet normal -0.211364 -0.977407 0
    outer loop
      vertex 2.74779 -3.72474 0
      vertex 2.56637 -3.68551 1
      vertex 2.56637 -3.68551 0
    endloop
  endfacet
  facet normal -0.211364 -0.977407 0
    outer loop
      vertex 2.74779 -3.72474 0
      vertex 2.74779 -3.72474 1
      vertex 2.56637 -3.68551 1
    endloop
  endfacet
  facet normal 0.0895091 -0.995986 0
    outer loop
      vertex 2.93488 -3.70793 0
      vertex 2.74779 -3.72474 1
      vertex 2.74779 -3.72474 0
    endloop
  endfacet
  facet normal 0.0895091 -0.995986 0
    outer loop
      vertex 2.93488 -3.70793 0
      vertex 2.93488 -3.70793 1
      vertex 2.74779 -3.72474 1
    endloop
  endfacet
  facet normal 0.338286 -0.941043 0
    outer loop
      vertex 3.12197 -3.64067 0
      vertex 2.93488 -3.70793 1
      vertex 2.93488 -3.70793 0
    endloop
  endfacet
  facet normal 0.338286 -0.941043 0
    outer loop
      vertex 3.12197 -3.64067 0
      vertex 3.12197 -3.64067 1
      vertex 2.93488 -3.70793 1
    endloop
  endfacet
  facet normal 0.579211 -0.815178 0
    outer loop
      vertex 3.30338 -3.51177 0
      vertex 3.12197 -3.64067 1
      vertex 3.12197 -3.64067 0
    endloop
  endfacet
  facet normal 0.579211 -0.815178 0
    outer loop
      vertex 3.30338 -3.51177 0
      vertex 3.30338 -3.51177 1
      vertex 3.12197 -3.64067 1
    endloop
  endfacet
  facet normal 0.732208 -0.681081 0
    outer loop
      vertex 3.75693 -3.02418 0
      vertex 3.30338 -3.51177 1
      vertex 3.30338 -3.51177 0
    endloop
  endfacet
  facet normal 0.732208 -0.681081 0
    outer loop
      vertex 3.75693 -3.02418 0
      vertex 3.75693 -3.02418 1
      vertex 3.30338 -3.51177 1
    endloop
  endfacet
  facet normal 0.752285 -0.658838 0
    outer loop
      vertex 5.2196 -1.35404 0
      vertex 3.75693 -3.02418 1
      vertex 3.75693 -3.02418 0
    endloop
  endfacet
  facet normal 0.752285 -0.658838 0
    outer loop
      vertex 5.2196 -1.35404 0
      vertex 5.2196 -1.35404 1
      vertex 3.75693 -3.02418 1
    endloop
  endfacet
  facet normal 0.715187 -0.698933 0
    outer loop
      vertex 5.54275 -1.02338 0
      vertex 5.2196 -1.35404 1
      vertex 5.2196 -1.35404 0
    endloop
  endfacet
  facet normal 0.715187 -0.698933 0
    outer loop
      vertex 5.54275 -1.02338 0
      vertex 5.54275 -1.02338 1
      vertex 5.2196 -1.35404 1
    endloop
  endfacet
  facet normal 0 -1 0
    outer loop
      vertex 5.55976 -1.02338 0
      vertex 5.54275 -1.02338 1
      vertex 5.54275 -1.02338 0
    endloop
  endfacet
  facet normal 0 -1 0
    outer loop
      vertex 5.55976 -1.02338 0
      vertex 5.55976 -1.02338 1
      vertex 5.54275 -1.02338 1
    endloop
  endfacet
  facet normal -0.73815 -0.674637 0
    outer loop
      vertex 6.1437 -1.66229 0
      vertex 5.55976 -1.02338 1
      vertex 5.55976 -1.02338 0
    endloop
  endfacet
  facet normal -0.73815 -0.674637 0
    outer loop
      vertex 6.1437 -1.66229 0
      vertex 6.1437 -1.66229 1
      vertex 5.55976 -1.02338 1
    endloop
  endfacet
  facet normal -0.755914 -0.654671 0
    outer loop
      vertex 7.56102 -3.2988 0
      vertex 6.1437 -1.66229 1
      vertex 6.1437 -1.66229 0
    endloop
  endfacet
  facet normal -0.755914 -0.654671 0
    outer loop
      vertex 7.56102 -3.2988 0
      vertex 7.56102 -3.2988 1
      vertex 6.1437 -1.66229 1
    endloop
  endfacet
  facet normal -0.712977 -0.701188 0
    outer loop
      vertex 7.75945 -3.50056 0
      vertex 7.56102 -3.2988 1
      vertex 7.56102 -3.2988 0
    endloop
  endfacet
  facet normal -0.712977 -0.701188 0
    outer loop
      vertex 7.75945 -3.50056 0
      vertex 7.75945 -3.50056 1
      vertex 7.56102 -3.2988 1
    endloop
  endfacet
  facet normal -0.658293 -0.752762 0
    outer loop
      vertex 7.90685 -3.62946 0
      vertex 7.75945 -3.50056 1
      vertex 7.75945 -3.50056 0
    endloop
  endfacet
  facet normal -0.658293 -0.752762 0
    outer loop
      vertex 7.90685 -3.62946 0
      vertex 7.90685 -3.62946 1
      vertex 7.75945 -3.50056 1
    endloop
  endfacet
  facet normal -0.510152 -0.860085 0
    outer loop
      vertex 8.02023 -3.69672 0
      vertex 7.90685 -3.62946 1
      vertex 7.90685 -3.62946 0
    endloop
  endfacet
  facet normal -0.510152 -0.860085 0
    outer loop
      vertex 8.02023 -3.69672 0
      vertex 8.02023 -3.69672 1
      vertex 7.90685 -3.62946 1
    endloop
  endfacet
  facet normal -0.279194 -0.960235 0
    outer loop
      vertex 8.11661 -3.72474 0
      vertex 8.02023 -3.69672 1
      vertex 8.02023 -3.69672 0
    endloop
  endfacet
  facet normal -0.279194 -0.960235 0
    outer loop
      vertex 8.11661 -3.72474 0
      vertex 8.11661 -3.72474 1
      vertex 8.02023 -3.69672 1
    endloop
  endfacet
  facet normal -0.035284 -0.999377 0
    outer loop
      vertex 8.27535 -3.73034 0
      vertex 8.11661 -3.72474 1
      vertex 8.11661 -3.72474 0
    endloop
  endfacet
  facet normal -0.035284 -0.999377 0
    outer loop
      vertex 8.27535 -3.73034 0
      vertex 8.27535 -3.73034 1
      vertex 8.11661 -3.72474 1
    endloop
  endfacet
  facet normal 0.130679 -0.991425 0
    outer loop
      vertex 8.44543 -3.70793 0
      vertex 8.27535 -3.73034 1
      vertex 8.27535 -3.73034 0
    endloop
  endfacet
  facet normal 0.130679 -0.991425 0
    outer loop
      vertex 8.44543 -3.70793 0
      vertex 8.44543 -3.70793 1
      vertex 8.27535 -3.73034 1
    endloop
  endfacet
endsolid OpenSCAD_Model
